<svg width="64" height="64" viewBox="0 0 64 64" fill="none" xmlns="http://www.w3.org/2000/svg">
<path d="M0 32C0 14.3269 14.3269 0 32 0C49.6731 0 64 14.3269 64 32C64 49.6731 49.6731 64 32 64C14.3269 64 0 49.6731 0 32Z" fill="#00D9F0"/>
<path d="M27.5 14.5V17H37.5V14.5C37.5 13.1195 38.6172 12 40 12C41.3828 12 42.5 13.1195 42.5 14.5V17H46.25C48.3203 17 50 18.6789 50 20.75V24.5H15V20.75C15 18.6789 16.6789 17 18.75 17H22.5V14.5C22.5 13.1195 23.6172 12 25 12C26.3828 12 27.5 13.1195 27.5 14.5ZM15 27H50V48.25C50 50.3203 48.3203 52 46.25 52H18.75C16.6789 52 15 50.3203 15 48.25V27ZM20 35.75C20 36.4375 20.5594 37 21.25 37H23.75C24.4375 37 25 36.4375 25 35.75V33.25C25 32.5625 24.4375 32 23.75 32H21.25C20.5594 32 20 32.5625 20 33.25V35.75ZM30 35.75C30 36.4375 30.5625 37 31.25 37H33.75C34.4375 37 35 36.4375 35 35.75V33.25C35 32.5625 34.4375 32 33.75 32H31.25C30.5625 32 30 32.5625 30 33.25V35.75ZM41.25 32C40.5625 32 40 32.5625 40 33.25V35.75C40 36.4375 40.5625 37 41.25 37H43.75C44.4375 37 45 36.4375 45 35.75V33.25C45 32.5625 44.4375 32 43.75 32H41.25ZM20 45.75C20 46.4375 20.5594 47 21.25 47H23.75C24.4375 47 25 46.4375 25 45.75V43.25C25 42.5625 24.4375 42 23.75 42H21.25C20.5594 42 20 42.5625 20 43.25V45.75ZM31.25 42C30.5625 42 30 42.5625 30 43.25V45.75C30 46.4375 30.5625 47 31.25 47H33.75C34.4375 47 35 46.4375 35 45.75V43.25C35 42.5625 34.4375 42 33.75 42H31.25ZM40 45.75C40 46.4375 40.5625 47 41.25 47H43.75C44.4375 47 45 46.4375 45 45.75V43.25C45 42.5625 44.4375 42 43.75 42H41.25C40.5625 42 40 42.5625 40 43.25V45.75Z" fill="white"/>
</svg>
