<svg width="64" height="64" viewBox="0 0 64 64" fill="none" xmlns="http://www.w3.org/2000/svg">
<rect width="64" height="64" rx="32" fill="#D81E5B"/>
<path d="M53.9113 22.1972C53.2131 20.5931 52.2063 19.1395 50.9474 17.9177C49.6875 16.6923 48.2021 15.7185 46.5719 15.0492C44.8815 14.3525 43.0684 13.9959 41.238 14C38.67 14 36.1645 14.6978 33.9871 16.0157C33.4662 16.331 32.9714 16.6773 32.5026 17.0546C32.0338 16.6773 31.5389 16.331 31.018 16.0157C28.8407 14.6978 26.3352 14 23.7672 14C21.918 14 20.1262 14.3515 18.4333 15.0492C16.7977 15.7211 15.3235 16.6876 14.0578 17.9177C12.7972 19.1381 11.7902 20.5921 11.0939 22.1972C10.3698 23.8666 10 25.6394 10 27.4639C10 29.185 10.3542 30.9784 11.0574 32.8029C11.646 34.3276 12.4899 35.9091 13.5681 37.5062C15.2766 40.0335 17.6259 42.6695 20.5429 45.3415C25.3768 49.7709 30.1638 52.8306 30.3669 52.9547L31.6014 53.7403C32.1484 54.0866 32.8516 54.0866 33.3985 53.7403L34.633 52.9547C34.8362 52.8255 39.618 49.7709 44.4571 45.3415C47.3741 42.6695 49.7233 40.0335 51.4318 37.5062C52.5101 35.9091 53.3591 34.3276 53.9425 32.8029C54.6457 30.9784 54.9999 29.185 54.9999 27.4639C55.0052 25.6394 54.6353 23.8666 53.9113 22.1972Z" fill="white"/>
</svg>
