<svg width="64" height="64" viewBox="0 0 64 64" fill="none" xmlns="http://www.w3.org/2000/svg">
<rect width="64" height="64" rx="32" fill="#F18F01"/>
<path d="M35.1999 49.3333H29.8C29.4419 49.3333 29.0985 49.4738 28.8454 49.7239C28.5922 49.9739 28.45 50.313 28.45 50.6667C28.45 51.0203 28.5922 51.3594 28.8454 51.6095C29.0985 51.8595 29.4419 52 29.8 52H35.1999C35.558 52 35.9013 51.8595 36.1545 51.6095C36.4077 51.3594 36.5499 51.0203 36.5499 50.6667C36.5499 50.313 36.4077 49.9739 36.1545 49.7239C35.9013 49.4738 35.558 49.3333 35.1999 49.3333ZM36.5499 45.3333H28.45C28.0919 45.3333 27.7486 45.4738 27.4954 45.7239C27.2422 45.9739 27.1 46.313 27.1 46.6667C27.1 47.0203 27.2422 47.3594 27.4954 47.6095C27.7486 47.8595 28.0919 48 28.45 48H36.5499C36.9079 48 37.2513 47.8595 37.5045 47.6095C37.7577 47.3594 37.8999 47.0203 37.8999 46.6667C37.8999 46.313 37.7577 45.9739 37.5045 45.7239C37.2513 45.4738 36.9079 45.3333 36.5499 45.3333ZM42.0697 15.8909C39.5325 13.3817 36.1339 12 32.4999 12C30.7259 11.9959 28.9685 12.3379 27.3287 13.0065C25.689 13.6751 24.1991 14.657 22.9446 15.896C21.6902 17.1349 20.696 18.6064 20.019 20.226C19.3421 21.8455 18.9958 23.5812 19 25.3334C19 29.2184 20.5078 32.8525 23.1344 35.3034L23.5023 35.6442C25.0218 37.0475 27.1 38.97 27.1 40.6667V42.6667C27.1 43.0203 27.2422 43.3594 27.4954 43.6095C27.7486 43.8595 28.0919 44 28.45 44H30.4749C30.654 44 30.8257 43.9298 30.9522 43.8047C31.0788 43.6797 31.1499 43.5102 31.1499 43.3333V33.5684C31.15 33.4335 31.1086 33.3019 31.0314 33.1907C30.9541 33.0796 30.8445 32.9942 30.7171 32.9459C29.9376 32.6317 29.197 32.2305 28.5099 31.75C28.3555 31.6526 28.2227 31.5252 28.1198 31.3755C28.0168 31.2259 27.9458 31.0571 27.911 30.8794C27.8762 30.7017 27.8784 30.519 27.9175 30.3422C27.9565 30.1654 28.0316 29.9983 28.1381 29.851C28.2446 29.7038 28.3804 29.5796 28.5371 29.4858C28.6938 29.3921 28.8682 29.3308 29.0496 29.3058C29.231 29.2807 29.4158 29.2924 29.5925 29.3401C29.7692 29.3879 29.9342 29.4706 30.0775 29.5834C30.7019 30.02 31.9043 30.6667 32.4999 30.6667C33.0956 30.6667 34.298 30.0184 34.924 29.5834C35.2155 29.4024 35.566 29.3382 35.9038 29.404C36.2417 29.4699 36.5412 29.6607 36.7413 29.9375C36.9413 30.2143 37.0267 30.5561 36.98 30.893C36.9333 31.23 36.758 31.5365 36.49 31.75C35.8028 32.2297 35.0622 32.63 34.2828 32.9434C34.1553 32.9917 34.0458 33.0771 33.9685 33.1882C33.8912 33.2994 33.8499 33.431 33.8499 33.5659V43.3333C33.8499 43.5102 33.921 43.6797 34.0476 43.8047C34.1742 43.9298 34.3459 44 34.5249 44H36.5499C36.9079 44 37.2513 43.8595 37.5045 43.6095C37.7577 43.3594 37.8999 43.0203 37.8999 42.6667V40.6667C37.8999 39.01 39.9552 37.0892 41.4563 35.6859L41.8705 35.2975C44.5722 32.75 45.9998 29.3009 45.9998 25.3334C46.0088 23.5811 45.666 21.8444 44.9915 20.2237C44.3169 18.603 43.3238 17.1303 42.0697 15.8909Z" fill="white"/>
</svg>
