<svg width="64" height="64" viewBox="0 0 64 64" fill="none" xmlns="http://www.w3.org/2000/svg">
<rect width="64" height="64" rx="32" fill="#00E1B7"/>
<path d="M37.5769 19.5003C39.6799 19.5003 41.3846 17.8213 41.3846 15.7501C41.3846 13.679 39.6799 12 37.5769 12C35.474 12 33.7692 13.679 33.7692 15.7501C33.7692 17.8213 35.474 19.5003 37.5769 19.5003ZM25.0187 36.8033L23.8446 39.5003H18.5385C17.1368 39.5003 16 40.6199 16 42.0004C16 43.3809 17.1368 44.5005 18.5385 44.5005H24.6823C26.2094 44.5005 27.5841 43.6067 28.1814 42.2277L28.8787 40.6246L28.0323 40.1323C26.6584 39.3331 25.6477 38.1502 25.0187 36.8033ZM46.4615 29.4999H42.9688L40.9015 25.3396C39.9099 23.3434 38.0894 21.884 36.0007 21.3597L30.3621 19.7081C28.1172 19.1768 25.7794 19.6651 23.9494 21.0472L20.8025 23.4231C19.6895 24.263 19.4785 25.8318 20.3328 26.9279C21.1872 28.0241 22.7793 28.2295 23.8914 27.3904L27.0399 25.0146C27.6484 24.5544 28.4234 24.3895 29.0445 24.5349L30.2106 24.8763L27.239 31.7039C26.2379 34.0071 27.1351 36.7049 29.3253 37.9784L36.0665 41.898L33.8874 48.7522C33.4686 50.0695 34.2135 51.4719 35.5509 51.8844C35.804 51.9625 36.0594 52 36.3109 52C37.3905 52 38.3916 51.3148 38.7319 50.246L41.2418 42.3504C41.7106 40.7277 41.0126 38.9846 39.5252 38.101L34.6672 35.2775L37.1509 29.1616L38.7589 32.3985C39.3935 33.6751 40.7357 34.4993 42.1787 34.4993H46.4615C47.8632 34.4993 49 33.3797 49 31.9992C49 30.6187 47.8632 29.4999 46.4615 29.4999Z" fill="white"/>
</svg>
