<svg width="64" height="64" viewBox="0 0 64 64" fill="none" xmlns="http://www.w3.org/2000/svg">
<rect width="64" height="64" rx="32" fill="#9A5BB3"/>
<path d="M32 42.8939C31.7389 42.8939 31.4823 42.8249 31.2556 42.6938L18.125 35.1017C18.0109 35.035 17.8815 35 17.7497 35C17.618 35 17.4886 35.0352 17.3745 35.1019C17.2605 35.1687 17.1658 35.2646 17.1001 35.3801C17.0343 35.4956 16.9998 35.6266 17 35.7599V42.8939C16.9998 43.1647 17.0712 43.4307 17.2069 43.6642C17.3426 43.8977 17.5375 44.0901 17.7716 44.2217L31.2716 51.809C31.4944 51.9343 31.7451 52 32 52C32.2549 52 32.5056 51.9343 32.7284 51.809L46.2284 44.2217C46.4625 44.0901 46.6574 43.8977 46.7931 43.6642C46.9288 43.4307 47.0002 43.1647 47 42.8939V35.7599C47.0002 35.6266 46.9657 35.4956 46.8999 35.3801C46.8342 35.2646 46.7395 35.1687 46.6255 35.1019C46.5114 35.0352 46.382 35 46.2503 35C46.1185 35 45.9891 35.035 45.875 35.1017L32.7444 42.6938C32.5177 42.8249 32.2611 42.8939 32 42.8939Z" fill="white"/>
<path d="M54.9923 25.5714V25.561C54.9675 25.3194 54.885 25.0873 54.7517 24.8838C54.6183 24.6804 54.438 24.5116 54.2257 24.3914L32.7599 12.2009C32.5281 12.0692 32.2659 12 31.999 12C31.7321 12 31.4698 12.0692 31.2381 12.2009L9.77224 24.3914C9.53764 24.5247 9.34265 24.7173 9.20704 24.9496C9.07142 25.1819 9 25.4457 9 25.7143C9 25.9829 9.07142 26.2467 9.20704 26.479C9.34265 26.7113 9.53764 26.9039 9.77224 27.0372L31.2381 39.2277C31.4698 39.3594 31.7321 39.4286 31.999 39.4286C32.2659 39.4286 32.5281 39.3594 32.7599 39.2277L51.646 28.5029C51.6752 28.4861 51.7083 28.4773 51.742 28.4774C51.7757 28.4774 51.8088 28.4863 51.838 28.5031C51.8671 28.5199 51.8913 28.544 51.9081 28.5731C51.9248 28.6022 51.9336 28.6351 51.9335 28.6686V42.4335C51.9335 43.2535 52.5678 43.9573 53.3929 43.9982C53.6003 44.0082 53.8074 43.9762 54.0019 43.9041C54.1964 43.8321 54.3742 43.7216 54.5245 43.5794C54.6747 43.4371 54.7943 43.2659 54.8761 43.0763C54.9578 42.8867 55 42.6826 55 42.4763V25.7143C54.9999 25.6666 54.9973 25.6189 54.9923 25.5714Z" fill="white"/>
</svg>
