<svg width="64" height="64" viewBox="0 0 64 64" fill="none" xmlns="http://www.w3.org/2000/svg">
<rect width="64" height="64" rx="32" fill="#0083F0"/>
<path d="M11 24V48C11 50.1333 12.8821 52 15.0312 52H16.375V20H15.0312C12.8821 20 11 21.8667 11 24ZM49.9688 20H48.625V52H49.9688C52.1179 52 54 50.1325 54 48V24C54 21.8667 52.1188 20 49.9688 20ZM43.25 16C43.25 13.8675 41.3687 12 39.2188 12H25.7812C23.6313 12 21.75 13.8675 21.75 16V20H19.0625V52H45.9375V20H43.25V16ZM25.7812 16H39.2188V20H25.7812V16ZM40.5625 38C40.5625 38.3667 40.2602 38.6667 39.8906 38.6667H35.1875V43.3333C35.1875 43.6979 34.8831 44 34.5156 44H30.4844C30.1148 44 29.8125 43.7 29.8125 43.3333V38.6667H25.1094C24.7398 38.6667 24.4375 38.3667 24.4375 38V34C24.4375 33.6333 24.7398 33.3333 25.1094 33.3333H29.8125V28.6667C29.8125 28.3 30.1148 28 30.4844 28H34.5156C34.8852 28 35.1875 28.3 35.1875 28.6667V33.3333H39.8906C40.2602 33.3333 40.5625 33.6333 40.5625 34V38Z" fill="white"/>
</svg>
