<svg width="32" height="32" viewBox="0 0 32 32" fill="none" xmlns="http://www.w3.org/2000/svg">
<path d="M17.7778 1.77778C17.7778 1.30628 17.5905 0.854097 17.2571 0.520699C16.9237 0.187301 16.4715 0 16 0C15.5285 0 15.0763 0.187301 14.7429 0.520699C14.4095 0.854097 14.2222 1.30628 14.2222 1.77778V14.2222H1.77778C1.30628 14.2222 0.854097 14.4095 0.520699 14.7429C0.187301 15.0763 0 15.5285 0 16C0 16.4715 0.187301 16.9237 0.520699 17.2571C0.854097 17.5905 1.30628 17.7778 1.77778 17.7778H14.2222V30.2222C14.2222 30.6937 14.4095 31.1459 14.7429 31.4793C15.0763 31.8127 15.5285 32 16 32C16.4715 32 16.9237 31.8127 17.2571 31.4793C17.5905 31.1459 17.7778 30.6937 17.7778 30.2222V17.7778H30.2222C30.6937 17.7778 31.1459 17.5905 31.4793 17.2571C31.8127 16.9237 32 16.4715 32 16C32 15.5285 31.8127 15.0763 31.4793 14.7429C31.1459 14.4095 30.6937 14.2222 30.2222 14.2222H17.7778V1.77778Z" fill="#111827"/>
</svg>
